<svg xmlns="http://www.w3.org/2000/svg" xmlns:xlink="http://www.w3.org/1999/xlink" zoomAndPan="magnify" preserveAspectRatio="xMidYMid meet" version="1.0" viewBox="90.02 168.85 120.27 50.5"><defs><g/><clipPath id="9d9cdee9a3"><path d="M 150.433594 168.847656 L 176.503906 168.847656 L 176.503906 206.148438 L 150.433594 206.148438 Z M 150.433594 168.847656 " clip-rule="nonzero"/></clipPath></defs><g clip-path="url(#9d9cdee9a3)"><path fill="#ba8460" d="M 166.859375 206.148438 C 168.664062 204.394531 171.105469 200.886719 169.78125 197.496094 C 168.960938 195.40625 166.527344 195.082031 163.8125 193.253906 C 162.648438 192.472656 163.4375 190.894531 166.070312 190.285156 C 168.082031 189.820312 170.089844 189.320312 172.035156 188.621094 C 174.894531 187.59375 176.503906 185.863281 176.503906 183.683594 C 176.503906 181.5625 175.164062 180.03125 172.570312 179.347656 C 170.746094 178.867188 169.445312 178.867188 164.628906 178.292969 C 161.964844 177.972656 158.53125 177.242188 157.28125 174.867188 C 155.738281 171.929688 158.753906 169.175781 160.90625 169.621094 C 159.03125 168.554688 154.632812 168.3125 152.167969 170.710938 C 150.625 172.210938 150.085938 174.414062 150.65625 176.492188 C 151.277344 178.757812 153.761719 180.875 155.996094 181.59375 C 164.085938 184.199219 171.535156 180.804688 171.777344 183.988281 C 171.957031 186.371094 168.046875 186.207031 162.023438 187.496094 C 159.328125 188.074219 156.453125 189.652344 157.390625 192.316406 C 159.039062 197 172.082031 195.226562 166.859375 206.148438 " fill-opacity="1" fill-rule="nonzero"/></g><g fill="#3a320c" fill-opacity="1"><g transform="translate(88.884103, 201.399553)"><g><path d="M 8.988281 -7.328125 C 10.246094 -7.644531 11.445312 -8.632812 11.445312 -10.5625 C 11.445312 -14.804688 6.550781 -14.699219 6.550781 -14.699219 L 1.660156 -14.699219 L 1.660156 0 L 6.550781 0 C 7.539062 0 11.65625 -0.1875 11.65625 -4.222656 C 11.65625 -4.222656 11.761719 -6.761719 8.988281 -7.328125 Z M 4.09375 -8.566406 L 4.09375 -12.265625 L 6.550781 -12.265625 C 6.550781 -12.265625 8.988281 -12.367188 8.988281 -10.394531 C 8.988281 -8.566406 6.550781 -8.566406 6.550781 -8.566406 Z M 6.550781 -2.4375 L 4.09375 -2.4375 L 4.09375 -6.109375 L 6.550781 -6.109375 C 6.550781 -6.109375 9.199219 -6.257812 9.199219 -4.285156 C 9.199219 -2.6875 7.582031 -2.4375 6.550781 -2.4375 Z M 6.550781 -2.4375 "/></g></g></g><g fill="#3a320c" fill-opacity="1"><g transform="translate(101.547151, 201.399553)"><g><path d="M 9.367188 0 L 12.242188 0 L 8.253906 -6.382812 C 9.679688 -6.78125 11.488281 -7.8125 11.488281 -10.414062 C 11.488281 -14.699219 6.574219 -14.699219 6.574219 -14.699219 L 1.679688 -14.699219 L 1.679688 -12.242188 L 4.011719 -8.566406 L 1.679688 -8.566406 L 1.679688 0 L 4.136719 0 L 4.136719 -6.132812 L 5.542969 -6.132812 Z M 6.886719 -8.589844 L 4.597656 -12.242188 L 6.574219 -12.242188 C 6.574219 -12.242188 9.03125 -12.242188 9.03125 -10.414062 C 9.03125 -8.96875 7.539062 -8.652344 6.886719 -8.589844 Z M 6.886719 -8.589844 "/></g></g></g><g fill="#3a320c" fill-opacity="1"><g transform="translate(114.399208, 201.399553)"><g><path d="M 4.117188 -12.242188 L 11.464844 -12.242188 L 11.464844 -14.699219 L 1.660156 -14.699219 L 1.660156 0 L 11.464844 0 L 11.464844 -2.457031 L 4.117188 -2.457031 L 4.117188 -6.132812 L 10.226562 -6.132812 L 10.226562 -8.566406 L 4.117188 -8.566406 Z M 4.117188 -12.242188 "/></g></g></g><g fill="#3a320c" fill-opacity="1"><g transform="translate(126.747257, 201.399553)"><g><path d="M 15.097656 0.589844 L 20.980469 -14.699219 L 18.332031 -14.699219 L 15.097656 -6.027344 L 11.863281 -14.699219 L 9.136719 -14.699219 L 5.902344 -6.027344 L 2.6875 -14.699219 L 0.0429688 -14.699219 L 5.902344 0.589844 L 10.5 -11.507812 Z M 15.097656 0.589844 "/></g></g></g><g fill="#3a320c" fill-opacity="1"><g transform="translate(147.770818, 201.399553)"><g/></g></g><g fill="#3a320c" fill-opacity="1"><g transform="translate(88.860666, 219.137724)"><g><path d="M 8.527344 -2.246094 C 5.816406 -2.246094 3.652344 -4.199219 3.652344 -7.351562 C 3.652344 -10.3125 5.503906 -12.453125 8.527344 -12.453125 C 9.871094 -12.453125 11.109375 -11.90625 11.992188 -11.023438 L 13.714844 -12.746094 C 12.390625 -14.089844 10.5625 -14.910156 8.527344 -14.910156 C 4.222656 -14.910156 1.15625 -11.78125 1.15625 -7.351562 C 1.15625 -2.730469 4.472656 0.210938 8.527344 0.210938 C 10.5625 0.210938 12.390625 -0.609375 13.714844 -1.933594 L 11.992188 -3.675781 C 11.109375 -2.792969 9.871094 -2.246094 8.527344 -2.246094 Z M 8.527344 -2.246094 "/></g></g></g><g fill="#3a320c" fill-opacity="1"><g transform="translate(103.434727, 219.137724)"><g><path d="M 6.65625 -3.988281 C 9.660156 -3.988281 12.117188 -6.445312 12.117188 -9.449219 C 12.117188 -12.453125 9.660156 -14.910156 6.65625 -14.910156 C 3.652344 -14.910156 1.195312 -12.453125 1.195312 -9.449219 C 1.195312 -6.445312 3.652344 -3.988281 6.65625 -3.988281 Z M 6.65625 -12.472656 C 8.335938 -12.472656 9.679688 -11.128906 9.679688 -9.449219 C 9.679688 -7.769531 8.335938 -6.425781 6.65625 -6.425781 C 4.976562 -6.425781 3.632812 -7.769531 3.632812 -9.449219 C 3.632812 -11.128906 4.976562 -12.472656 6.65625 -12.472656 Z M 11.445312 0 L 11.445312 -2.4375 L 1.742188 -2.4375 L 1.742188 0 Z M 11.445312 0 "/></g></g></g><g fill="#3a320c" fill-opacity="1"><g transform="translate(116.832783, 219.137724)"><g><path d="M 17.578125 0 L 17.578125 -14.722656 L 15.078125 -14.722656 L 9.722656 -3.277344 L 4.136719 -14.722656 L 1.636719 -14.722656 L 1.636719 0 L 4.09375 0 L 4.09375 -9.21875 L 8.589844 0 L 10.898438 0 L 15.121094 -9.03125 L 15.121094 0 Z M 17.578125 0 "/></g></g></g><g fill="#3a320c" fill-opacity="1"><g transform="translate(136.068858, 219.137724)"><g><path d="M 6.550781 -14.699219 L 1.660156 -14.699219 L 1.660156 -12.242188 L 3.988281 -8.566406 L 1.660156 -8.566406 L 1.660156 0 L 4.117188 0 L 4.117188 -6.132812 L 6.550781 -6.132812 C 6.550781 -6.132812 11.445312 -6.132812 11.445312 -10.414062 C 11.445312 -14.699219 6.550781 -14.699219 6.550781 -14.699219 Z M 6.867188 -8.589844 L 4.578125 -12.242188 L 6.550781 -12.242188 C 6.550781 -12.242188 9.007812 -12.242188 9.007812 -10.414062 C 9.007812 -8.988281 7.519531 -8.671875 6.867188 -8.589844 Z M 6.867188 -8.589844 "/></g></g></g><g fill="#3a320c" fill-opacity="1"><g transform="translate(148.311907, 219.137724)"><g><path d="M 8.441406 -1.699219 L 9.09375 0 L 11.738281 0 L 5.859375 -15.121094 L 0 0 L 2.644531 0 L 3.277344 -1.699219 Z M 4.074219 -3.820312 L 5.859375 -8.925781 L 7.644531 -3.820312 Z M 4.074219 -3.820312 "/></g></g></g><g fill="#3a320c" fill-opacity="1"><g transform="translate(160.050958, 219.137724)"><g><path d="M 13.902344 0 L 13.902344 -14.699219 L 11.464844 -14.699219 L 11.464844 -4.242188 L 4.136719 -14.699219 L 1.660156 -14.699219 L 1.660156 0 L 4.117188 0 L 4.117188 -10.457031 L 11.425781 0 Z M 13.902344 0 "/></g></g></g><g fill="#3a320c" fill-opacity="1"><g transform="translate(175.633026, 219.137724)"><g><path d="M 4.871094 -12.453125 L 6.511719 -12.453125 L 6.511719 -14.699219 L 0.777344 -14.699219 L 0.777344 -12.453125 L 2.414062 -12.453125 L 2.414062 -2.246094 L 0.691406 -2.246094 L 0.691406 0 L 6.59375 0 L 6.59375 -2.246094 L 4.871094 -2.246094 Z M 4.871094 -12.453125 "/></g></g></g><g fill="#3a320c" fill-opacity="1"><g transform="translate(182.983051, 219.137724)"><g><path d="M 6.65625 -3.988281 C 9.660156 -3.988281 12.117188 -6.445312 12.117188 -9.449219 C 12.117188 -12.453125 9.660156 -14.910156 6.65625 -14.910156 C 3.652344 -14.910156 1.195312 -12.453125 1.195312 -9.449219 C 1.195312 -6.445312 3.652344 -3.988281 6.65625 -3.988281 Z M 6.65625 -12.472656 C 8.335938 -12.472656 9.679688 -11.128906 9.679688 -9.449219 C 9.679688 -7.769531 8.335938 -6.425781 6.65625 -6.425781 C 4.976562 -6.425781 3.632812 -7.769531 3.632812 -9.449219 C 3.632812 -11.128906 4.976562 -12.472656 6.65625 -12.472656 Z M 11.445312 0 L 11.445312 -2.4375 L 1.742188 -2.4375 L 1.742188 0 Z M 11.445312 0 "/></g></g></g><g fill="#3a320c" fill-opacity="1"><g transform="translate(196.381106, 219.137724)"><g><path d="M 13.902344 0 L 13.902344 -14.699219 L 11.464844 -14.699219 L 11.464844 -4.242188 L 4.136719 -14.699219 L 1.660156 -14.699219 L 1.660156 0 L 4.117188 0 L 4.117188 -10.457031 L 11.425781 0 Z M 13.902344 0 "/></g></g></g></svg>