<svg xmlns="http://www.w3.org/2000/svg" xmlns:xlink="http://www.w3.org/1999/xlink" zoomAndPan="magnify" preserveAspectRatio="xMidYMid meet" version="1.0" viewBox="56.47 0 262.09 375.03"><defs><clipPath id="c736fc4da0"><path d="M 56.472656 0 L 318.554688 0 L 318.554688 375 L 56.472656 375 Z M 56.472656 0 " clip-rule="nonzero"/></clipPath></defs><g clip-path="url(#c736fc4da0)"><path fill="#ba8460" d="M 221.597656 375.03125 C 239.722656 357.390625 264.285156 322.105469 250.953125 288.035156 C 242.730469 267.019531 218.25 263.757812 190.960938 245.398438 C 179.242188 237.515625 187.183594 221.648438 213.660156 215.527344 C 233.902344 210.84375 254.089844 205.832031 273.640625 198.804688 C 302.359375 188.484375 318.558594 171.09375 318.558594 149.167969 C 318.558594 127.851562 305.082031 112.449219 279.027344 105.582031 C 260.65625 100.738281 247.601562 100.75 199.183594 94.960938 C 172.394531 91.761719 137.871094 84.402344 125.3125 60.527344 C 109.78125 30.984375 140.105469 3.300781 161.726562 7.773438 C 142.902344 -2.921875 98.691406 -5.378906 73.90625 18.730469 C 58.390625 33.828125 52.972656 55.984375 58.699219 76.863281 C 64.949219 99.640625 89.914062 120.914062 112.390625 128.15625 C 193.703125 154.34375 268.617188 120.234375 271.03125 152.226562 C 272.839844 176.203125 233.546875 174.542969 172.992188 187.515625 C 145.890625 193.324219 116.960938 209.160156 126.402344 235.957031 C 142.984375 283.03125 274.097656 265.191406 221.597656 375.03125 " fill-opacity="1" fill-rule="nonzero"/></g></svg>